<svg width="513" height="512" viewBox="0 0 513 512" fill="none" xmlns="http://www.w3.org/2000/svg">
<rect width="513" height="512" fill="#1a1a1a"/>
<path fill-rule="evenodd" clip-rule="evenodd" d="M269.686 176.939V425.533H189.573V176.939H269.686ZM269.893 86.4668V166.626H195.299C173.197 166.626 155.792 179.573 143.083 205.466L75.7324 166.228C95.1133 119.413 141.347 86.4668 195.299 86.4668H269.893ZM309.742 86.4668C380.172 86.4668 437.267 143.394 437.267 213.617C437.267 283.84 380.172 340.767 309.742 340.767H281.13V260.89L313.012 260.89L313.012 260.78C337.672 259.105 357.155 238.629 357.155 213.617C357.155 188.604 337.672 168.129 313.012 166.454L313.012 166.343L281.13 166.342V86.4668H309.742Z" fill="#CFCFCF"/>
</svg>
